<svg xmlns="http://www.w3.org/2000/svg" width="71" height="163.433" viewBox="0 0 71 163.433">
  <g id="Grupo_110585" data-name="Grupo 110585" transform="translate(10130 7662.433)">
    <rect id="Rectángulo_40070" data-name="Rectángulo 40070" width="43" height="41" transform="translate(-10130 -7601)" fill="#789c8a"/>
    <text id="S:_" data-name="S:
" transform="translate(-10116 -7597)" fill="#fff" font-size="20" font-family="Roboto-Black, Roboto" font-weight="800"><tspan x="0" y="21">S:</tspan></text>
    <rect id="Rectángulo_40075" data-name="Rectángulo 40075" width="43" height="41" transform="translate(-10128 -7540)" fill="#789c8a"/>
    <text id="So:_" data-name="So:
" transform="translate(-10120 -7536)" fill="#fff" font-size="20" font-family="Roboto-Black, Roboto" font-weight="800"><tspan x="0" y="21">So:</tspan></text>
    <rect id="Rectángulo_40064" data-name="Rectángulo 40064" width="43" height="41" transform="translate(-10130 -7662.433)" fill="#789c8a"/>
    <text id="E:_" data-name="E:
" transform="translate(-10116 -7658.433)" fill="#fff" font-size="20" font-family="Roboto-Black, Roboto" font-weight="800"><tspan x="0" y="21">E:</tspan></text>
    <g id="Grupo_108132" data-name="Grupo 108132" transform="translate(-10508.946 -9790.547)">
      <g id="Grupo_78489" data-name="Grupo 78489" transform="translate(413.705 2130.874)">
        <circle id="Elipse_4758" data-name="Elipse 4758" cx="14" cy="14" r="14" transform="translate(3.241 3.241)" fill="#ffb500" opacity="0.18"/>
        <circle id="Elipse_4759" data-name="Elipse 4759" cx="17" cy="17" r="17" transform="translate(0.241 0.241)" fill="#ffb500" opacity="0.154"/>
      </g>
      <circle id="Elipse_4753" data-name="Elipse 4753" cx="11" cy="11" r="11" transform="translate(419.947 2137.115)" fill="#ffb500"/>
      <path id="Trazado_146139" data-name="Trazado 146139" d="M.561-6.651H3.092v1.772H.561v2.911H-1.38V-4.879H-3.926V-6.651H-1.38V-9.422H.561Z" transform="translate(431.376 2153.833)" fill="#12263f"/>
    </g>
    <g id="Grupo_110583" data-name="Grupo 110583" transform="translate(-10508.946 -9728.115)">
      <g id="Grupo_78489-2" data-name="Grupo 78489" transform="translate(413.705 2130.874)">
        <circle id="Elipse_4758-2" data-name="Elipse 4758" cx="14" cy="14" r="14" transform="translate(3.241 3.241)" fill="#ffb500" opacity="0.18"/>
        <circle id="Elipse_4759-2" data-name="Elipse 4759" cx="17" cy="17" r="17" transform="translate(0.241 0.241)" fill="#ffb500" opacity="0.154"/>
      </g>
      <circle id="Elipse_4753-2" data-name="Elipse 4753" cx="11" cy="11" r="11" transform="translate(419.947 2137.115)" fill="#ffb500"/>
      <path id="Trazado_146139-2" data-name="Trazado 146139" d="M.561-6.651H3.092v1.772H.561v2.911H-1.38V-4.879H-3.926V-6.651H-1.38V-9.422H.561Z" transform="translate(431.376 2153.833)" fill="#12263f"/>
    </g>
    <g id="Grupo_110584" data-name="Grupo 110584" transform="translate(-10506.946 -9669.684)">
      <g id="Grupo_78489-3" data-name="Grupo 78489" transform="translate(413.705 2130.874)">
        <circle id="Elipse_4758-3" data-name="Elipse 4758" cx="14" cy="14" r="14" transform="translate(3.241 3.241)" fill="#ffb500" opacity="0.18"/>
        <circle id="Elipse_4759-3" data-name="Elipse 4759" cx="17" cy="17" r="17" transform="translate(0.241 0.241)" fill="#ffb500" opacity="0.154"/>
      </g>
      <circle id="Elipse_4753-3" data-name="Elipse 4753" cx="11" cy="11" r="11" transform="translate(419.947 2137.115)" fill="#ffb500"/>
      <path id="Trazado_146139-3" data-name="Trazado 146139" d="M.561-6.651H3.092v1.772H.561v2.911H-1.38V-4.879H-3.926V-6.651H-1.38V-9.422H.561Z" transform="translate(431.376 2153.833)" fill="#12263f"/>
    </g>
  </g>
</svg>
