<svg xmlns="http://www.w3.org/2000/svg" width="121.346" height="101" viewBox="0 0 121.346 101">
  <g id="Grupo_110586" data-name="Grupo 110586" transform="translate(-749.739 -1751)">
    <line id="Línea_88" data-name="Línea 88" x2="21.177" transform="translate(848.908 1801.285)" fill="none" stroke="#477fa2" stroke-linecap="round" stroke-width="2"/>
    <circle id="Elipse_1147" data-name="Elipse 1147" cx="50.5" cy="50.5" r="50.5" transform="translate(749.739 1751)" fill="#477fa2"/>
    <circle id="Elipse_5209" data-name="Elipse 5209" cx="41" cy="41" r="41" transform="translate(760 1760)" fill="#fff"/>
    <g id="Grupo_110564" data-name="Grupo 110564">
      <g id="velocimetro" transform="translate(774.045 1757.485)">
        <path id="Trazado_191708" data-name="Trazado 191708" d="M93.221,24.161a19.524,19.524,0,0,1,13.534,5.566l5.021-5.021a26.135,26.135,0,0,0-18.554-7.64,26.523,26.523,0,0,0-18.554,7.64l5.021,5.021A19.056,19.056,0,0,1,93.221,24.161Z" transform="translate(-67.027)" fill="#f8b64c"/>
        <path id="Trazado_191709" data-name="Trazado 191709" d="M12.66,96.754,7.64,91.733a26.35,26.35,0,0,0,0,37.108l5.021-5.021a19.236,19.236,0,0,1,0-27.067Z" transform="translate(0 -67.026)" fill="#54c0eb"/>
        <path id="Trazado_191710" data-name="Trazado 191710" d="M393.287,91.733l-5.02,5.021a19.056,19.056,0,0,1,5.566,13.534,19.524,19.524,0,0,1-5.566,13.534l5.021,5.021a26.135,26.135,0,0,0,7.64-18.554A26.524,26.524,0,0,0,393.287,91.733Z" transform="translate(-348.54 -67.026)" fill="#f1543f"/>
        <path id="Trazado_191711" data-name="Trazado 191711" d="M150.8,91.966l-4.8,4.8a12.671,12.671,0,0,0-8.731-3.6,12.47,12.47,0,0,0-8.731,3.6h0l-4.8-4.8a19.236,19.236,0,0,1,27.067,0Z" transform="translate(-111.073 -62.239)" fill="#ffd15c"/>
        <path id="Trazado_191712" data-name="Trazado 191712" d="M79.7,163.064l-4.8,4.8a19.056,19.056,0,0,1-5.566-13.534A19.524,19.524,0,0,1,74.9,140.8l4.8,4.8a12.47,12.47,0,0,0-3.6,8.731A11.606,11.606,0,0,0,79.7,163.064Z" transform="translate(-62.24 -111.072)" fill="#84dbff"/>
        <path id="Trazado_191713" data-name="Trazado 191713" d="M351.7,154.334a19.523,19.523,0,0,1-5.566,13.534l-4.8-4.8a12.671,12.671,0,0,0,3.6-8.731,12.47,12.47,0,0,0-3.6-8.731l4.8-4.8A19.055,19.055,0,0,1,351.7,154.334Z" transform="translate(-306.408 -111.074)" fill="#ff7058"/>
        <path id="Trazado_191714" data-name="Trazado 191714" d="M248.869,171.733l-14.188,10.8a2.593,2.593,0,0,1-2.619,2.183,2.729,2.729,0,0,1,0-5.457,2.4,2.4,0,0,1,.873.109Z" transform="translate(-205.868 -138.841)" fill="#40596b"/>
        <path id="Trazado_191715" data-name="Trazado 191715" d="M146.654,422.162H127.881a4.145,4.145,0,0,1-4.147-4.147h0a4.145,4.145,0,0,1,4.147-4.147h18.663a4.145,4.145,0,0,1,4.147,4.147h0A3.987,3.987,0,0,1,146.654,422.162Z" transform="translate(-111.074 -356.2)" fill="#cdd6e0"/>
        <circle id="Elipse_5210" data-name="Elipse 5210" cx="1.091" cy="1.091" r="1.091" transform="translate(25.102 42.17)" fill="#fff"/>
      </g>
      <path id="Trazado_191716" data-name="Trazado 191716" d="M86.234,192.124a4.266,4.266,0,0,0,8.523,0,3.929,3.929,0,0,0-.489-1.893l-1.83-3.17c-.462-.759,0,0-.971-1.629a1.123,1.123,0,0,0-1.97.111l-.925,1.518-1.85,3.17A3.9,3.9,0,0,0,86.234,192.124Zm0,0" transform="translate(710.504 1624.65)" fill="#55b8e6" fill-rule="evenodd"/>
      <path id="Trazado_191717" data-name="Trazado 191717" d="M88.836,191.968a3.887,3.887,0,0,1,.488-1.889l1.847-3.173.592-.974c-.078-.133-.176-.3-.3-.5a1.123,1.123,0,0,0-1.97.111l-.925,1.518-1.85,3.17a3.9,3.9,0,0,0-.488,1.893,4.167,4.167,0,0,0,4.26,4.065,4.353,4.353,0,0,0,1.553-.28A4.1,4.1,0,0,1,88.836,191.968Zm0,0" transform="translate(710.504 1624.649)" fill="#6a96d4" fill-rule="evenodd"/>
    </g>
  </g>
</svg>
